# xmcd
#
# Track frame offsets: 
#        150
#        8979
#        18666
#        37387
#        48322
#        60887
#        69408
#        79886
#        89034
#        101272
#        111742
#        122209
#        131138
#        157629
#        166650
#        174481
#        181460
#        191776
#        203914
#        212437
#        221552
#        230449
#        239495
#        254875
#        261701
#        268815
#        278496
#        298825
#
# Disc length: 4203 seconds
#
# Revision: 0
# Processed by: cddbd v1.5.1PL2 Copyright (c) Steve Scherf et al.
# Submitted via: ExactAudioCopy v0.95b4
#
DISCID=b110691c
DTITLE=Deda Mladek Illegal Band  - Deda Mladek Illegal Band
DYEAR=2001
DGENRE=Country
TTITLE0=Kdyz je v Praze hic
TTITLE1=Jez
TTITLE2=Jozin z bazin
TTITLE3=Linda
TTITLE4=Zaba - puk
TTITLE5=Zkratky
TTITLE6=Hlasna Treban
TTITLE7=Praha - Prcice
TTITLE8=Rychlik jede do Prahy
TTITLE9=Lizatko
TTITLE10=Lada jede lodi
TTITLE11=Prachovske skaly
TTITLE12=Smeska
TTITLE13=Do hlavy ne
TTITLE14=Brno je zlata lod
TTITLE15=Medvedi nevedi
TTITLE16=Krecek
TTITLE17=Krava
TTITLE18=Divka s dolicky
TTITLE19=Podzim
TTITLE20=Zobali vrabci zobali
TTITLE21=Brabenci v kredenci
TTITLE22=Velorex dzinovy
TTITLE23=Michle krychle
TTITLE24=Divka s modrou matraci
TTITLE25=Saskavy vino
TTITLE26=Knock'in On Heaven's Door
TTITLE27=Slavici z Madridu
EXTD=
EXTT0=
EXTT1=
EXTT2=
EXTT3=
EXTT4=
EXTT5=
EXTT6=
EXTT7=
EXTT8=
EXTT9=
EXTT10=
EXTT11=
EXTT12=
EXTT13=
EXTT14=
EXTT15=
EXTT16=
EXTT17=
EXTT18=
EXTT19=
EXTT20=
EXTT21=
EXTT22=
EXTT23=
EXTT24=
EXTT25=
EXTT26=
EXTT27=
PLAYORDER=
